<svg xmlns:xlink="http://www.w3.org/1999/xlink" xmlns:svgjs="http://svgjs.dev/svgjs" xmlns="http://www.w3.org/2000/svg"
     version="1.1" width="1000" height="1000" viewBox="0 0 1000 1000">
    <rect width="1000" height="1000" fill="#ffffff"></rect>
    <g transform="matrix(0.7,0,0,0.7,149.57575757575756,282.1265587044535)">
        <svg xmlns:xlink="http://www.w3.org/1999/xlink" viewBox="0 0 396 247" data-background-color="#ffffff" preserveAspectRatio="xMidYMid meet"
             height="623" width="1000" xmlns="http://www.w3.org/2000/svg">
            <g id="tight-bounds" transform="matrix(1,0,0,1,0.2400000000000091,-0.09999999999999432)">
                <svg viewBox="0 0 395.52 247.2" height="247.2" width="395.52">
                    <g>
                        <svg></svg>
                    </g>
                    <g>
                        <svg viewBox="0 0 395.52 247.2" height="247.2" width="395.52">
                            <g transform="matrix(1,0,0,1,39.55199999999999,73.16025387453874)">
                                <svg viewBox="0 0 316.416 100.87949225092251" height="100.87949225092251"
                                     width="316.416">
                                    <g>
                                        <svg viewBox="0 0 316.416 100.87949225092251" height="100.87949225092251"
                                             width="316.416">
                                            <g>
                                                <svg viewBox="0 0 316.416 100.87949225092251"
                                                     height="100.87949225092251" width="316.416">
                                                    <g>
                                                        <svg viewBox="0 0 316.416 100.87949225092251"
                                                             height="100.87949225092251" width="316.416">
                                                            <g id="textblocktransform">
                                                                <svg viewBox="0 0 316.416 100.87949225092251"
                                                                     height="100.87949225092251" width="316.416"
                                                                     id="textblock">
                                                                    <g>
                                                                        <svg viewBox="0 0 316.416 100.87949225092251"
                                                                             height="100.87949225092251"
                                                                             width="316.416">
                                                                            <g transform="matrix(1,0,0,1,0,0)">
                                                                                <svg width="316.416"
                                                                                     viewBox="-2.299999952316284 -39.599998474121094 136.49000549316406 44.19999694824219"
                                                                                     height="100.87949225092251"
                                                                                     data-palette-color="#233565">
                                                                                    <path d="M33.6-33.4L42.9-33.4 42.9-32.25 38.65-31.75 39.75-1.5 43.6-1.2 43.6 0 30.9 0 30.9-1.05 34.7-1.5 33.4-27.3 23.35 0 20.7 0 8.7-27.05 7.75-2.45 11.95-1.2 11.95 0 1.7 0 1.7-1.2 5.85-2.65 6.85-31.75 2.6-32.25 2.6-33.4 11.45-33.4 23.35-5.55 33.6-33.4ZM55.9-32.58Q55.9-31.35 55.05-30.48 54.2-29.6 52.92-29.6 51.65-29.6 50.8-30.45 49.95-31.3 49.95-32.58 49.95-33.85 50.8-34.73 51.65-35.6 52.9-35.6 54.15-35.6 55.02-34.7 55.9-33.8 55.9-32.58ZM58.9 0L47.4 0 47.4-1.2 50.7-1.45 50.7-22.7 46.3-22.85 46.3-24 55.6-24.65 55.6-1.45 58.9-1.2 58.9 0ZM77.65-25L77.65-25Q78.95-25 79.7-24.38 80.45-23.75 80.45-22.65L80.45-22.65Q80.45-20.75 79-20.15L79-20.15Q78.2-20.8 76.1-20.8 74-20.8 72.07-19.43 70.15-18.05 70.15-16.3L70.15-16.3 70.15-1.45 74.65-1.2 74.65 0 61.95 0 61.95-1.2 65.25-1.4 65.25-22.75 61.3-22.95 61.3-24.1 70.15-24.65 69.85-18.5 70.05-18.5Q70.9-21.2 73.17-23.1 75.45-25 77.65-25ZM87.94-5.4L87.94-5.4Q87.94-2.15 90.59-1.55L90.59-1.55Q91.19-1.4 91.74-1.4L91.74-1.4Q93.64-1.4 95.69-3.03 97.74-4.65 97.84-7.4L97.84-7.4 97.84-11.7Q87.94-11.6 87.94-5.4ZM89.94 0.6L89.94 0.6Q87.09 0.6 85.07-0.98 83.04-2.55 83.04-5.4L83.04-5.4Q83.09-9.25 86.92-11.15 90.74-13.05 97.84-13.05L97.84-13.05 97.84-17.35Q97.84-23.7 93.24-23.7L93.24-23.7Q90.89-23.7 89.44-21.75L89.44-21.75Q88.44-20.4 88.44-18.4L88.44-18.4Q88.44-17.55 88.64-16.6L88.64-16.6Q87.94-16.1 87.22-16.1 86.49-16.1 85.79-16.4L85.79-16.4Q84.19-17 84.19-18.7L84.19-18.7Q84.19-21 85.84-22.5L85.84-22.5Q88.54-24.95 93.29-24.95 98.04-24.95 100.19-22.93 102.34-20.9 102.34-16.55L102.34-16.55 102.34-1.4 106.54-1.2 106.59-0.05 98.24 0.55 97.79-3.9Q95.49 0.6 89.94 0.6ZM121.59-24.95L121.59-24.95Q124.39-24.95 126.99-23.75L126.99-23.75Q128.44-23.1 129.32-21.75 130.19-20.4 130.19-18.6 130.19-16.8 128.59-16.15L128.59-16.15Q127.94-15.9 127.22-15.9 126.49-15.9 125.74-16.4L125.74-16.4Q125.94-17.45 125.94-18.88 125.94-20.3 125.04-21.6L125.04-21.6Q123.74-23.55 121.34-23.55L121.34-23.55Q114.39-23.55 114.39-12.1L114.39-12.1Q114.39-6.5 116.02-3.68 117.64-0.85 121.29-0.85L121.29-0.85Q125.94-0.85 128.74-5.35L128.74-5.35Q129.84-5 129.84-4.28 129.84-3.55 128.92-2.48 127.99-1.4 125.72-0.43 123.44 0.55 120.49 0.55L120.49 0.55Q115.34 0.55 112.17-2.95 108.99-6.45 108.99-12.2 108.99-17.95 112.42-21.45 115.84-24.95 121.59-24.95Z"
                                                                                          opacity="1"
                                                                                          transform="matrix(1,0,0,1,0,0)"
                                                                                          fill="#233565"
                                                                                          class="undefined-text-0"
                                                                                          data-fill-palette-color="primary"
                                                                                          id="text-0"></path>
                                                                                </svg>
                                                                            </g>
                                                                        </svg>
                                                                    </g>
                                                                </svg>
                                                            </g>
                                                        </svg>
                                                    </g>
                                                    <g></g>
                                                </svg>
                                            </g>
                                        </svg>
                                    </g>
                                </svg>
                            </g>
                            <g mask="url(&quot;#d2cd12ee-d608-40c8-8c9d-78381fc11600&quot;)">
                                <g transform="matrix(3.0487276325786086, 0, 0, 3.0487276325786086, 45.323095022286196, 1)">
                                    <svg xmlns:xlink="http://www.w3.org/1999/xlink" xmlns="http://www.w3.org/2000/svg" version="1.1" x="0" y="0" viewBox="0 9.78600025177002 100.0003433227539 80.42699432373047" enable-background="new 0 0 100 100" xml:space="preserve" width="100.0003433227539" height="80.42699432373047" class="icon-none" data-fill-palette-color="accent" id="none"><path d="M49.942 52.994c13.552-0.488 27.103-0.977 40.653-1.465-2.527-4.177-3.159-7.831-7.989-8.461-7.229-0.94-14.458-1.883-21.688-2.826-14.023-1.827-28.05-3.654-42.075-5.48C20.101 36.792 39.724 53.361 49.942 52.994z" fill="#8bd8bc" data-fill-palette-color="accent"></path><path
                                            d="M0 9.786c4.391 7.257 26.615 23.072 32.953 23.886 17.33 2.231 34.657 4.46 51.986 6.688-3.393-5.607-4.18-9.35-10.312-10.959-8.904-2.341-17.812-4.683-26.717-7.023C31.94 18.182 15.97 13.984 0 9.786z"
                                            fill="#8bd8bc" data-fill-palette-color="accent"></path><path
                                            d="M63.108 66.207c10.413-2.219 20.826-4.439 31.241-6.66-2.028-3.346-2.034-5.359-5.827-5.189-6.158 0.273-12.314 0.549-18.471 0.822-11.343 0.506-22.686 1.014-34.028 1.518C37.298 58.064 54.94 67.947 63.108 66.207z"
                                            fill="#8bd8bc" data-fill-palette-color="accent"></path><path
                                            d="M87.682 90.213c5.725-3.719 7.262-7.721 10.519-13.807 3.651-6.824 1.257-7.844-2.821-14.596-0.417-0.688-5.842 0.232-6.453 0.904-0.745 0.818-0.248 5.455-0.294 6.496C88.315 76.211 87.998 83.213 87.682 90.213z"
                                            fill="#8bd8bc" data-fill-palette-color="accent"></path><path
                                            d="M86.35 63.447c-3.795 0.809-8.604 0.191-9.572 4.229-1.373 5.736-2.746 11.475-4.12 17.211C81.904 82.678 86.028 71.582 86.35 63.447z"
                                            fill="#8bd8bc" data-fill-palette-color="accent"></path><path
                                            d="M74.666 66.121c-9.148 1.953-8.956 4.611-12.879 13.18C68.007 78.711 73.811 71.941 74.666 66.121z"
                                            fill="#8bd8bc" data-fill-palette-color="accent"></path></svg>
                                </g>
                            </g>
                            <mask id="d2cd12ee-d608-40c8-8c9d-78381fc11600">
                                <rect width="640" height="400" fill="white"></rect>
                                <g transform="matrix(1,0,0,1,39.55199999999999,73.16025387453874)">
                                    <svg viewBox="0 0 316.416 100.87949225092251" height="100.87949225092251"
                                         width="316.416">
                                        <g>
                                            <svg viewBox="0 0 316.416 100.87949225092251" height="100.87949225092251"
                                                 width="316.416">
                                                <g>
                                                    <svg viewBox="0 0 316.416 100.87949225092251"
                                                         height="100.87949225092251" width="316.416">
                                                        <g>
                                                            <svg viewBox="0 0 316.416 100.87949225092251"
                                                                 height="100.87949225092251" width="316.416">
                                                                <g id="SvgjsG1146">
                                                                    <svg viewBox="0 0 316.416 100.87949225092251"
                                                                         height="100.87949225092251" width="316.416"
                                                                         id="SvgjsSvg1145">
                                                                        <g>
                                                                            <svg viewBox="0 0 316.416 100.87949225092251"
                                                                                 height="100.87949225092251"
                                                                                 width="316.416">
                                                                                <g transform="matrix(1,0,0,1,0,0)">
                                                                                    <svg width="316.416"
                                                                                         viewBox="-2.299999952316284 -39.599998474121094 136.49000549316406 44.19999694824219"
                                                                                         height="100.87949225092251"
                                                                                         data-palette-color="#233565">
                                                                                        <path d="M33.6-33.4L42.9-33.4 42.9-32.25 38.65-31.75 39.75-1.5 43.6-1.2 43.6 0 30.9 0 30.9-1.05 34.7-1.5 33.4-27.3 23.35 0 20.7 0 8.7-27.05 7.75-2.45 11.95-1.2 11.95 0 1.7 0 1.7-1.2 5.85-2.65 6.85-31.75 2.6-32.25 2.6-33.4 11.45-33.4 23.35-5.55 33.6-33.4ZM55.9-32.58Q55.9-31.35 55.05-30.48 54.2-29.6 52.92-29.6 51.65-29.6 50.8-30.45 49.95-31.3 49.95-32.58 49.95-33.85 50.8-34.73 51.65-35.6 52.9-35.6 54.15-35.6 55.02-34.7 55.9-33.8 55.9-32.58ZM58.9 0L47.4 0 47.4-1.2 50.7-1.45 50.7-22.7 46.3-22.85 46.3-24 55.6-24.65 55.6-1.45 58.9-1.2 58.9 0ZM77.65-25L77.65-25Q78.95-25 79.7-24.38 80.45-23.75 80.45-22.65L80.45-22.65Q80.45-20.75 79-20.15L79-20.15Q78.2-20.8 76.1-20.8 74-20.8 72.07-19.43 70.15-18.05 70.15-16.3L70.15-16.3 70.15-1.45 74.65-1.2 74.65 0 61.95 0 61.95-1.2 65.25-1.4 65.25-22.75 61.3-22.95 61.3-24.1 70.15-24.65 69.85-18.5 70.05-18.5Q70.9-21.2 73.17-23.1 75.45-25 77.65-25ZM87.94-5.4L87.94-5.4Q87.94-2.15 90.59-1.55L90.59-1.55Q91.19-1.4 91.74-1.4L91.74-1.4Q93.64-1.4 95.69-3.03 97.74-4.65 97.84-7.4L97.84-7.4 97.84-11.7Q87.94-11.6 87.94-5.4ZM89.94 0.6L89.94 0.6Q87.09 0.6 85.07-0.98 83.04-2.55 83.04-5.4L83.04-5.4Q83.09-9.25 86.92-11.15 90.74-13.05 97.84-13.05L97.84-13.05 97.84-17.35Q97.84-23.7 93.24-23.7L93.24-23.7Q90.89-23.7 89.44-21.75L89.44-21.75Q88.44-20.4 88.44-18.4L88.44-18.4Q88.44-17.55 88.64-16.6L88.64-16.6Q87.94-16.1 87.22-16.1 86.49-16.1 85.79-16.4L85.79-16.4Q84.19-17 84.19-18.7L84.19-18.7Q84.19-21 85.84-22.5L85.84-22.5Q88.54-24.95 93.29-24.95 98.04-24.95 100.19-22.93 102.34-20.9 102.34-16.55L102.34-16.55 102.34-1.4 106.54-1.2 106.59-0.05 98.24 0.55 97.79-3.9Q95.49 0.6 89.94 0.6ZM121.59-24.95L121.59-24.95Q124.39-24.95 126.99-23.75L126.99-23.75Q128.44-23.1 129.32-21.75 130.19-20.4 130.19-18.6 130.19-16.8 128.59-16.15L128.59-16.15Q127.94-15.9 127.22-15.9 126.49-15.9 125.74-16.4L125.74-16.4Q125.94-17.45 125.94-18.88 125.94-20.3 125.04-21.6L125.04-21.6Q123.74-23.55 121.34-23.55L121.34-23.55Q114.39-23.55 114.39-12.1L114.39-12.1Q114.39-6.5 116.02-3.68 117.64-0.85 121.29-0.85L121.29-0.85Q125.94-0.85 128.74-5.35L128.74-5.35Q129.84-5 129.84-4.28 129.84-3.55 128.92-2.48 127.99-1.4 125.72-0.43 123.44 0.55 120.49 0.55L120.49 0.55Q115.34 0.55 112.17-2.95 108.99-6.45 108.99-12.2 108.99-17.95 112.42-21.45 115.84-24.95 121.59-24.95Z"
                                                                                              opacity="1"
                                                                                              transform="matrix(1,0,0,1,0,0)"
                                                                                              fill="#233565"
                                                                                              class="undefined-text-0"
                                                                                              data-fill-palette-color="primary"
                                                                                              id="SvgjsPath1144"
                                                                                              stroke-width="7"
                                                                                              stroke="black"
                                                                                              stroke-linejoin="round"></path>
                                                                                    </svg>
                                                                                </g>
                                                                            </svg>
                                                                        </g>
                                                                    </svg>
                                                                </g>
                                                            </svg>
                                                        </g>
                                                        <g></g>
                                                    </svg>
                                                </g>
                                            </svg>
                                        </g>
                                    </svg>
                                </g>
                            </mask>
                        </svg>
                    </g>
                    <defs></defs>
                </svg>
                <rect width="395.52" height="247.2" fill="none" stroke="none" visibility="hidden"></rect>
            </g>
        </svg>
    </g>
</svg>